<?xml version="1.0" encoding="UTF-8"?>
<svg xmlns="http://www.w3.org/2000/svg" width="1672" height="941" viewBox="0 0 1672 941" role="img" aria-labelledby="title desc">
  <title id="title">MoEGuard Hybrid Recovery</title>
  <desc id="desc">Vector reconstruction of a three-stage MoEGuard hybrid recovery workflow showing failure, hybrid recovery, and rebuild/resume.</desc>
  <defs>
    <linearGradient id="redFill" x1="0" y1="0" x2="1" y2="1">
      <stop offset="0" stop-color="#fff7f7"/>
      <stop offset="1" stop-color="#ffffff"/>
    </linearGradient>
    <linearGradient id="blueFill" x1="0" y1="0" x2="1" y2="1">
      <stop offset="0" stop-color="#f6fbff"/>
      <stop offset="1" stop-color="#ffffff"/>
    </linearGradient>
    <linearGradient id="greenFill" x1="0" y1="0" x2="1" y2="1">
      <stop offset="0" stop-color="#f7fff5"/>
      <stop offset="1" stop-color="#ffffff"/>
    </linearGradient>
    <linearGradient id="amberFill" x1="0" y1="0" x2="1" y2="1">
      <stop offset="0" stop-color="#fffaf0"/>
      <stop offset="1" stop-color="#ffffff"/>
    </linearGradient>
    <linearGradient id="stageRed" x1="0" y1="0" x2="1" y2="1">
      <stop offset="0" stop-color="#f71923"/>
      <stop offset="1" stop-color="#d30610"/>
    </linearGradient>
    <linearGradient id="stageBlue" x1="0" y1="0" x2="1" y2="1">
      <stop offset="0" stop-color="#3f82e8"/>
      <stop offset="1" stop-color="#0f4fb9"/>
    </linearGradient>
    <linearGradient id="stageGreen" x1="0" y1="0" x2="1" y2="1">
      <stop offset="0" stop-color="#5ab14c"/>
      <stop offset="1" stop-color="#2e8a2b"/>
    </linearGradient>
    <filter id="softShadow" x="-10%" y="-10%" width="120%" height="130%">
      <feDropShadow dx="0" dy="1.5" stdDeviation="1.5" flood-color="#000000" flood-opacity="0.12"/>
    </filter>
    <marker id="arrowBlue" viewBox="0 0 10 10" refX="8.5" refY="5" markerWidth="8" markerHeight="8" orient="auto-start-reverse">
      <path d="M 0 0 L 10 5 L 0 10 z" fill="#1f65d6"/>
    </marker>
    <marker id="arrowPurple" viewBox="0 0 10 10" refX="8.5" refY="5" markerWidth="8" markerHeight="8" orient="auto-start-reverse">
      <path d="M 0 0 L 10 5 L 0 10 z" fill="#6a3fb5"/>
    </marker>
    <symbol id="server" viewBox="0 0 36 32">
      <rect x="4" y="5" width="28" height="8" fill="#ffffff" stroke="#111111" stroke-width="1.8" rx="1"/>
      <rect x="4" y="13" width="28" height="8" fill="#ffffff" stroke="#111111" stroke-width="1.8" rx="1"/>
      <rect x="4" y="21" width="28" height="8" fill="#ffffff" stroke="#111111" stroke-width="1.8" rx="1"/>
      <path d="M8 5 L12 1 H24 L28 5" fill="none" stroke="#111111" stroke-width="1.8" stroke-linejoin="round"/>
      <circle cx="10" cy="9" r="1.1" fill="#111111"/>
      <circle cx="10" cy="17" r="1.1" fill="#111111"/>
      <circle cx="10" cy="25" r="1.1" fill="#111111"/>
      <path d="M25 9 H29 M25 17 H29 M25 25 H29" stroke="#111111" stroke-width="1.5" stroke-linecap="round"/>
    </symbol>
    <symbol id="warning" viewBox="0 0 50 50">
      <path d="M25 6 L46 43 H4 Z" fill="#ffffff" stroke="#e00008" stroke-width="4" stroke-linejoin="round"/>
      <path d="M25 17 V31" stroke="#e00008" stroke-width="4" stroke-linecap="round"/>
      <circle cx="25" cy="38" r="2.5" fill="#e00008"/>
    </symbol>
    <symbol id="cross" viewBox="0 0 50 50">
      <path d="M12 12 L38 38 M38 12 L12 38" stroke="#e00008" stroke-width="5" stroke-linecap="round"/>
    </symbol>
    <symbol id="check" viewBox="0 0 58 58">
      <circle cx="29" cy="29" r="25" fill="#ffffff" stroke="#3c9635" stroke-width="4"/>
      <path d="M16 30 L25 39 L43 18" fill="none" stroke="#3c9635" stroke-width="5" stroke-linecap="round" stroke-linejoin="round"/>
    </symbol>
    <symbol id="bulb" viewBox="0 0 50 50">
      <path d="M25 5 V0 M12 10 L8 6 M38 10 L42 6 M6 23 H0 M50 23 H44" stroke="#111111" stroke-width="1.7" stroke-linecap="round"/>
      <path d="M25 8 C16 8 10 15 10 24 C10 30 13 34 18 38 H32 C37 34 40 30 40 24 C40 15 34 8 25 8 Z" fill="#ffffff" stroke="#111111" stroke-width="2"/>
      <path d="M18 38 H32 M19 43 H31 M21 48 H29" stroke="#111111" stroke-width="2" stroke-linecap="round"/>
    </symbol>
    <style>
      .title { font-family: Arial, Helvetica, sans-serif; font-size: 38px; font-weight: 800; fill: #050505; }
      .panel-title { font-family: Arial, Helvetica, sans-serif; font-size: 25px; font-weight: 800; }
      .label { font-family: Arial, Helvetica, sans-serif; font-size: 18px; font-weight: 700; fill: #050505; }
      .body { font-family: Arial, Helvetica, sans-serif; font-size: 18px; fill: #050505; }
      .small { font-family: Arial, Helvetica, sans-serif; font-size: 16px; fill: #050505; }
      .tiny { font-family: Arial, Helvetica, sans-serif; font-size: 14px; fill: #050505; }
      .cell-text { font-family: Arial, Helvetica, sans-serif; font-size: 22px; font-weight: 700; fill: #050505; }
      .sub { font-size: 14px; baseline-shift: sub; }
      .red { fill: #e00008; }
      .blue { fill: #004ad5; }
      .green { fill: #147a12; }
      .purple { fill: #6a3fb5; }
      .panel-red { fill: #fffafa; stroke: #e00008; stroke-width: 1.4; }
      .panel-blue { fill: #f8fbff; stroke: #1f65d6; stroke-width: 1.4; }
      .panel-green { fill: #f8fff7; stroke: #2c8d2d; stroke-width: 1.4; }
      .healthy { fill: #f8fbff; stroke: #2e73dc; stroke-width: 1.2; }
      .healthy-green { fill: #f8fff7; stroke: #2c8d2d; stroke-width: 1.2; }
      .failed { fill: #fffafa; stroke: #e00008; stroke-width: 1.3; }
      .replacement { fill: #fffafa; stroke: #e00008; stroke-width: 1.3; stroke-dasharray: 8 7; }
      .phase { fill: #ffffff; stroke: #2e73dc; stroke-width: 1.2; }
      .phase-green { fill: #fbfff7; stroke: #2c8d2d; stroke-width: 1.2; }
      .arrow-blue { fill: none; stroke: #1f65d6; stroke-width: 4; marker-end: url(#arrowBlue); }
      .arrow-purple { fill: none; stroke: #6a3fb5; stroke-width: 3.2; marker-end: url(#arrowPurple); }
      .legend-box { fill: #ffffff; stroke: #7f8794; stroke-width: 1.1; }
    </style>
  </defs>

  <rect width="1672" height="941" fill="#ffffff"/>
  <text x="836" y="46" style="font-family:Arial,Helvetica,sans-serif;font-size:38px;font-weight:800;fill:#050505" text-anchor="middle">MoEGuard Hybrid Recovery</text>

  <!-- Stage 1: Failure occurs -->
  <g id="stage-failure">
    <rect x="19" y="74" width="491" height="710" rx="11" style="fill:#fffafa;stroke:#e00008;stroke-width:1.4"/>
    <line x1="19" y1="138" x2="510" y2="138" stroke="#e00008" stroke-width="1.2"/>
    <circle cx="179" cy="106" r="21" fill="#e00008"/>
    <text x="179" y="115" text-anchor="middle" font-family="Arial, Helvetica, sans-serif" font-size="26" font-weight="800" fill="#ffffff">1</text>
    <text x="217" y="116" style="font-family:Arial,Helvetica,sans-serif;font-size:25px;font-weight:800;fill:#e00008">Failure Occurs</text>

    <use href="#warning" x="115" y="153" width="50" height="50"/>
    <text x="179" y="184" style="font-family:Arial,Helvetica,sans-serif;font-size:18px;fill:#050505">Worker W<tspan style="font-size:14px;baseline-shift:sub">1,2</tspan> fails</text>

    <text x="160" y="230" style="font-family:Arial,Helvetica,sans-serif;font-size:16px;fill:#050505" text-anchor="middle" font-weight="700">Stage 0</text>
    <text x="260" y="230" style="font-family:Arial,Helvetica,sans-serif;font-size:16px;fill:#050505" text-anchor="middle" font-weight="700">Stage 1</text>
    <text x="360" y="230" style="font-family:Arial,Helvetica,sans-serif;font-size:16px;fill:#050505" text-anchor="middle" font-weight="700">Stage 2</text>
    <text x="460" y="230" style="font-family:Arial,Helvetica,sans-serif;font-size:16px;fill:#050505" text-anchor="middle" font-weight="700">Stage 3</text>

    <text x="31" y="300" style="font-family:Arial,Helvetica,sans-serif;font-size:18px;fill:#050505">Pipeline 0</text>
    <text x="31" y="418" style="font-family:Arial,Helvetica,sans-serif;font-size:18px;fill:#050505">Pipeline 1</text>
    <text x="31" y="536" style="font-family:Arial,Helvetica,sans-serif;font-size:18px;fill:#050505">Pipeline 2</text>

    <g transform="translate(122 255)">
      <rect width="75" height="86" rx="7" style="fill:#f8fbff;stroke:#2e73dc;stroke-width:1.2"/>
      <use href="#server" x="20" y="13" width="36" height="32"/>
      <text x="37.5" y="72" style="font-family:Arial,Helvetica,sans-serif;font-size:22px;font-weight:700;fill:#050505" text-anchor="middle">W<tspan style="font-size:14px;baseline-shift:sub">0,0</tspan></text>
    </g>
    <g transform="translate(222 255)">
      <rect width="75" height="86" rx="7" style="fill:#f8fbff;stroke:#2e73dc;stroke-width:1.2"/>
      <use href="#server" x="20" y="13" width="36" height="32"/>
      <text x="37.5" y="72" style="font-family:Arial,Helvetica,sans-serif;font-size:22px;font-weight:700;fill:#050505" text-anchor="middle">W<tspan style="font-size:14px;baseline-shift:sub">0,1</tspan></text>
    </g>
    <g transform="translate(322 255)">
      <rect width="75" height="86" rx="7" style="fill:#f8fbff;stroke:#2e73dc;stroke-width:1.2"/>
      <use href="#server" x="20" y="13" width="36" height="32"/>
      <text x="37.5" y="72" style="font-family:Arial,Helvetica,sans-serif;font-size:22px;font-weight:700;fill:#050505" text-anchor="middle">W<tspan style="font-size:14px;baseline-shift:sub">0,2</tspan></text>
    </g>
    <g transform="translate(422 255)">
      <rect width="75" height="86" rx="7" style="fill:#f8fbff;stroke:#2e73dc;stroke-width:1.2"/>
      <use href="#server" x="20" y="13" width="36" height="32"/>
      <text x="37.5" y="72" style="font-family:Arial,Helvetica,sans-serif;font-size:22px;font-weight:700;fill:#050505" text-anchor="middle">W<tspan style="font-size:14px;baseline-shift:sub">0,3</tspan></text>
    </g>

    <g transform="translate(122 374)">
      <rect width="75" height="86" rx="7" style="fill:#f8fbff;stroke:#2e73dc;stroke-width:1.2"/>
      <use href="#server" x="20" y="13" width="36" height="32"/>
      <text x="37.5" y="72" style="font-family:Arial,Helvetica,sans-serif;font-size:22px;font-weight:700;fill:#050505" text-anchor="middle">W<tspan style="font-size:14px;baseline-shift:sub">1,0</tspan></text>
    </g>
    <g transform="translate(222 374)">
      <rect width="75" height="86" rx="7" style="fill:#f8fbff;stroke:#2e73dc;stroke-width:1.2"/>
      <use href="#server" x="20" y="13" width="36" height="32"/>
      <text x="37.5" y="72" style="font-family:Arial,Helvetica,sans-serif;font-size:22px;font-weight:700;fill:#050505" text-anchor="middle">W<tspan style="font-size:14px;baseline-shift:sub">1,1</tspan></text>
    </g>
    <g transform="translate(322 374)">
      <rect width="75" height="86" rx="7" style="fill:#fffafa;stroke:#e00008;stroke-width:1.3"/>
      <use href="#cross" x="21" y="13" width="34" height="34"/>
      <text x="37.5" y="72" style="font-family:Arial,Helvetica,sans-serif;font-size:22px;font-weight:700;fill:#050505" text-anchor="middle">W<tspan style="font-size:14px;baseline-shift:sub">1,2</tspan></text>
    </g>
    <g transform="translate(422 374)">
      <rect width="75" height="86" rx="7" style="fill:#f8fbff;stroke:#2e73dc;stroke-width:1.2"/>
      <use href="#server" x="20" y="13" width="36" height="32"/>
      <text x="37.5" y="72" style="font-family:Arial,Helvetica,sans-serif;font-size:22px;font-weight:700;fill:#050505" text-anchor="middle">W<tspan style="font-size:14px;baseline-shift:sub">1,3</tspan></text>
    </g>

    <g transform="translate(122 492)">
      <rect width="75" height="86" rx="7" style="fill:#f8fbff;stroke:#2e73dc;stroke-width:1.2"/>
      <use href="#server" x="20" y="13" width="36" height="32"/>
      <text x="37.5" y="72" style="font-family:Arial,Helvetica,sans-serif;font-size:22px;font-weight:700;fill:#050505" text-anchor="middle">W<tspan style="font-size:14px;baseline-shift:sub">2,0</tspan></text>
    </g>
    <g transform="translate(222 492)">
      <rect width="75" height="86" rx="7" style="fill:#f8fbff;stroke:#2e73dc;stroke-width:1.2"/>
      <use href="#server" x="20" y="13" width="36" height="32"/>
      <text x="37.5" y="72" style="font-family:Arial,Helvetica,sans-serif;font-size:22px;font-weight:700;fill:#050505" text-anchor="middle">W<tspan style="font-size:14px;baseline-shift:sub">2,1</tspan></text>
    </g>
    <g transform="translate(322 492)">
      <rect width="75" height="86" rx="7" style="fill:#f8fbff;stroke:#2e73dc;stroke-width:1.2"/>
      <use href="#server" x="20" y="13" width="36" height="32"/>
      <text x="37.5" y="72" style="font-family:Arial,Helvetica,sans-serif;font-size:22px;font-weight:700;fill:#050505" text-anchor="middle">W<tspan style="font-size:14px;baseline-shift:sub">2,2</tspan></text>
    </g>
    <g transform="translate(422 492)">
      <rect width="75" height="86" rx="7" style="fill:#f8fbff;stroke:#2e73dc;stroke-width:1.2"/>
      <use href="#server" x="20" y="13" width="36" height="32"/>
      <text x="37.5" y="72" style="font-family:Arial,Helvetica,sans-serif;font-size:22px;font-weight:700;fill:#050505" text-anchor="middle">W<tspan style="font-size:14px;baseline-shift:sub">2,3</tspan></text>
    </g>
  </g>

  <path d="M510 383 H546" style="fill:none;stroke:#1f65d6;stroke-width:4;marker-end:url(#arrowBlue)"/>

  <!-- Stage 2: Hybrid recovery -->
  <g id="stage-recovery">
    <rect x="532" y="74" width="605" height="710" rx="11" style="fill:#f8fbff;stroke:#1f65d6;stroke-width:1.4"/>
    <line x1="532" y1="138" x2="1137" y2="138" stroke="#1f65d6" stroke-width="1.2"/>
    <circle cx="733" cy="106" r="21" fill="#1f65d6"/>
    <text x="733" y="115" text-anchor="middle" font-family="Arial, Helvetica, sans-serif" font-size="26" font-weight="800" fill="#ffffff">2</text>
    <text x="773" y="116" style="font-family:Arial,Helvetica,sans-serif;font-size:25px;font-weight:800;fill:#004ad5">Hybrid Recovery</text>

    <g transform="translate(562 165)">
      <rect width="102" height="108" rx="8" style="fill:#f8fff7;stroke:#2c8d2d;stroke-width:1.2"/>
      <text x="51" y="28" style="font-family:Arial,Helvetica,sans-serif;font-size:22px;font-weight:700;fill:#050505" text-anchor="middle">W<tspan style="font-size:14px;baseline-shift:sub">0,2</tspan></text>
      <use href="#server" x="33" y="39" width="36" height="32"/>
      <text x="51" y="91" style="font-family:Arial,Helvetica,sans-serif;font-size:16px;fill:#050505" text-anchor="middle">(Stage 2)</text>
    </g>
    <g transform="translate(562 449)">
      <rect width="102" height="108" rx="8" style="fill:#f8fff7;stroke:#2c8d2d;stroke-width:1.2"/>
      <text x="51" y="28" style="font-family:Arial,Helvetica,sans-serif;font-size:22px;font-weight:700;fill:#050505" text-anchor="middle">W<tspan style="font-size:14px;baseline-shift:sub">2,2</tspan></text>
      <use href="#server" x="33" y="39" width="36" height="32"/>
      <text x="51" y="91" style="font-family:Arial,Helvetica,sans-serif;font-size:16px;fill:#050505" text-anchor="middle">(Stage 2)</text>
    </g>

    <path d="M670 218 C706 221 736 245 759 283" style="fill:none;stroke:#1f65d6;stroke-width:4;marker-end:url(#arrowBlue)"/>
    <path d="M670 504 C706 501 737 477 759 440" style="fill:none;stroke:#1f65d6;stroke-width:4;marker-end:url(#arrowBlue)"/>
    <text x="815" y="217" style="font-family:Arial,Helvetica,sans-serif;font-size:18px;fill:#050505;fill:#004ad5" text-anchor="middle" font-weight="700">Dense / Router</text>
    <text x="815" y="244" style="font-family:Arial,Helvetica,sans-serif;font-size:18px;fill:#050505;fill:#004ad5" text-anchor="middle" font-weight="700">+ Opt State</text>
    <text x="816" y="504" style="font-family:Arial,Helvetica,sans-serif;font-size:18px;fill:#050505;fill:#004ad5" text-anchor="middle" font-weight="700">Dense / Router</text>
    <text x="816" y="531" style="font-family:Arial,Helvetica,sans-serif;font-size:18px;fill:#050505;fill:#004ad5" text-anchor="middle" font-weight="700">+ Opt State</text>

    <g transform="translate(720 300)">
      <rect width="114" height="132" rx="10" style="fill:#fffafa;stroke:#e00008;stroke-width:1.3;stroke-dasharray:8 7"/>
      <use href="#server" x="39" y="17" width="36" height="32"/>
      <text x="57" y="75" style="font-family:Arial,Helvetica,sans-serif;font-size:22px;font-weight:700;fill:#050505" text-anchor="middle">W<tspan style="font-size:14px;baseline-shift:sub">1,2</tspan></text>
      <text x="57" y="98" style="font-family:Arial,Helvetica,sans-serif;font-size:16px;fill:#050505" text-anchor="middle">(Stage 2)</text>
      <text x="57" y="124" style="font-family:Arial,Helvetica,sans-serif;font-size:14px;fill:#050505;fill:#e00008" text-anchor="middle" font-weight="700">(replacement)</text>
    </g>

    <path d="M980 359 H850" style="fill:none;stroke:#6a3fb5;stroke-width:3.2;marker-end:url(#arrowPurple)"/>
    <text x="918" y="394" style="font-family:Arial,Helvetica,sans-serif;font-size:16px;fill:#050505;fill:#6a3fb5" text-anchor="middle" font-weight="700">Expert State</text>
    <g transform="translate(990 302)">
      <ellipse cx="57" cy="18" rx="57" ry="18" fill="#faf8ff" stroke="#6a3fb5" stroke-width="1.5"/>
      <path d="M0 18 V102 C0 112 25 120 57 120 C89 120 114 112 114 102 V18" fill="#ffffff" stroke="#6a3fb5" stroke-width="1.5"/>
      <path d="M0 102 C0 112 25 120 57 120 C89 120 114 112 114 102" fill="none" stroke="#6a3fb5" stroke-width="1.5"/>
      <text x="57" y="69" style="font-family:Arial,Helvetica,sans-serif;font-size:16px;fill:#050505" text-anchor="middle">Checkpoint</text>
      <text x="57" y="91" style="font-family:Arial,Helvetica,sans-serif;font-size:16px;fill:#050505" text-anchor="middle">(latest)</text>
    </g>

    <g transform="translate(545 574)">
      <rect width="570" height="194" rx="12" style="fill:#f8fbff;stroke:#1f65d6;stroke-width:1.4"/>
      <text x="285" y="30" style="font-family:Arial,Helvetica,sans-serif;font-size:18px;fill:#050505;fill:#004ad5" text-anchor="middle" font-weight="800">Two-Phase Recovery</text>
      <g transform="translate(16 44)">
        <rect width="255" height="139" rx="10" style="fill:#ffffff;stroke:#2e73dc;stroke-width:1.2"/>
        <text x="127.5" y="28" style="font-family:Arial,Helvetica,sans-serif;font-size:16px;fill:#050505;fill:#004ad5" text-anchor="middle" font-weight="800">Phase A: Weights First</text>
        <use href="#server" x="18" y="47" width="34" height="30"/>
        <text x="66" y="61" style="font-family:Arial,Helvetica,sans-serif;font-size:16px;fill:#050505">Dense / Router</text>
        <text x="66" y="81" style="font-family:Arial,Helvetica,sans-serif;font-size:16px;fill:#050505">Weights</text>
        <use href="#server" x="18" y="96" width="34" height="30"/>
        <text x="66" y="115" style="font-family:Arial,Helvetica,sans-serif;font-size:16px;fill:#050505">Expert Weights</text>
      </g>
      <path d="M278 112 H310" style="fill:none;stroke:#1f65d6;stroke-width:4;marker-end:url(#arrowBlue)"/>
      <g transform="translate(320 44)">
        <rect width="230" height="139" rx="10" style="fill:#fbfff7;stroke:#2c8d2d;stroke-width:1.2"/>
        <text x="115" y="40" style="font-family:Arial,Helvetica,sans-serif;font-size:16px;fill:#050505;fill:#147a12" text-anchor="middle" font-weight="800">Phase B: Optimizer Later</text>
        <use href="#server" x="20" y="69" width="34" height="30"/>
        <text x="67" y="92" style="font-family:Arial,Helvetica,sans-serif;font-size:16px;fill:#050505">Optimizer States</text>
      </g>
    </g>
  </g>

  <path d="M1135 383 H1171" style="fill:none;stroke:#1f65d6;stroke-width:4;marker-end:url(#arrowBlue)"/>

  <!-- Stage 3: Rebuild and resume -->
  <g id="stage-resume">
    <rect x="1159" y="74" width="493" height="710" rx="11" style="fill:#f8fff7;stroke:#2c8d2d;stroke-width:1.4"/>
    <line x1="1159" y1="138" x2="1652" y2="138" stroke="#2c8d2d" stroke-width="1.2"/>
    <circle cx="1296" cy="106" r="21" fill="#2c8d2d"/>
    <text x="1296" y="115" text-anchor="middle" font-family="Arial, Helvetica, sans-serif" font-size="26" font-weight="800" fill="#ffffff">3</text>
    <text x="1328" y="116" style="font-family:Arial,Helvetica,sans-serif;font-size:25px;font-weight:800;fill:#147a12">Rebuild &amp; Resume</text>

    <text x="1297" y="228" style="font-family:Arial,Helvetica,sans-serif;font-size:16px;fill:#050505" text-anchor="middle" font-weight="700">Stage 0</text>
    <text x="1395" y="228" style="font-family:Arial,Helvetica,sans-serif;font-size:16px;fill:#050505" text-anchor="middle" font-weight="700">Stage 1</text>
    <text x="1493" y="228" style="font-family:Arial,Helvetica,sans-serif;font-size:16px;fill:#050505" text-anchor="middle" font-weight="700">Stage 2</text>
    <text x="1591" y="228" style="font-family:Arial,Helvetica,sans-serif;font-size:16px;fill:#050505" text-anchor="middle" font-weight="700">Stage 3</text>

    <text x="1172" y="300" style="font-family:Arial,Helvetica,sans-serif;font-size:18px;fill:#050505">Pipeline 0</text>
    <text x="1172" y="418" style="font-family:Arial,Helvetica,sans-serif;font-size:18px;fill:#050505">Pipeline 1</text>
    <text x="1172" y="536" style="font-family:Arial,Helvetica,sans-serif;font-size:18px;fill:#050505">Pipeline 2</text>

    <g transform="translate(1260 255)">
      <rect width="74" height="86" rx="7" style="fill:#f8fff7;stroke:#2c8d2d;stroke-width:1.2"/>
      <use href="#server" x="19" y="13" width="36" height="32"/>
      <text x="37" y="72" style="font-family:Arial,Helvetica,sans-serif;font-size:22px;font-weight:700;fill:#050505" text-anchor="middle">W<tspan style="font-size:14px;baseline-shift:sub">0,0</tspan></text>
    </g>
    <g transform="translate(1358 255)">
      <rect width="74" height="86" rx="7" style="fill:#f8fff7;stroke:#2c8d2d;stroke-width:1.2"/>
      <use href="#server" x="19" y="13" width="36" height="32"/>
      <text x="37" y="72" style="font-family:Arial,Helvetica,sans-serif;font-size:22px;font-weight:700;fill:#050505" text-anchor="middle">W<tspan style="font-size:14px;baseline-shift:sub">0,1</tspan></text>
    </g>
    <g transform="translate(1456 255)">
      <rect width="74" height="86" rx="7" style="fill:#f8fff7;stroke:#2c8d2d;stroke-width:1.2"/>
      <use href="#server" x="19" y="13" width="36" height="32"/>
      <text x="37" y="72" style="font-family:Arial,Helvetica,sans-serif;font-size:22px;font-weight:700;fill:#050505" text-anchor="middle">W<tspan style="font-size:14px;baseline-shift:sub">0,2</tspan></text>
    </g>
    <g transform="translate(1554 255)">
      <rect width="74" height="86" rx="7" style="fill:#f8fff7;stroke:#2c8d2d;stroke-width:1.2"/>
      <use href="#server" x="19" y="13" width="36" height="32"/>
      <text x="37" y="72" style="font-family:Arial,Helvetica,sans-serif;font-size:22px;font-weight:700;fill:#050505" text-anchor="middle">W<tspan style="font-size:14px;baseline-shift:sub">0,3</tspan></text>
    </g>

    <g transform="translate(1260 374)">
      <rect width="74" height="86" rx="7" style="fill:#f8fff7;stroke:#2c8d2d;stroke-width:1.2"/>
      <use href="#server" x="19" y="13" width="36" height="32"/>
      <text x="37" y="72" style="font-family:Arial,Helvetica,sans-serif;font-size:22px;font-weight:700;fill:#050505" text-anchor="middle">W<tspan style="font-size:14px;baseline-shift:sub">1,0</tspan></text>
    </g>
    <g transform="translate(1358 374)">
      <rect width="74" height="86" rx="7" style="fill:#f8fff7;stroke:#2c8d2d;stroke-width:1.2"/>
      <use href="#server" x="19" y="13" width="36" height="32"/>
      <text x="37" y="72" style="font-family:Arial,Helvetica,sans-serif;font-size:22px;font-weight:700;fill:#050505" text-anchor="middle">W<tspan style="font-size:14px;baseline-shift:sub">1,1</tspan></text>
    </g>
    <g transform="translate(1456 374)">
      <rect width="74" height="86" rx="7" style="fill:#f8fff7;stroke:#2c8d2d;stroke-width:1.2"/>
      <use href="#server" x="19" y="13" width="36" height="32"/>
      <text x="37" y="72" style="font-family:Arial,Helvetica,sans-serif;font-size:22px;font-weight:700;fill:#050505" text-anchor="middle">W<tspan style="font-size:14px;baseline-shift:sub">1,2</tspan></text>
    </g>
    <g transform="translate(1554 374)">
      <rect width="74" height="86" rx="7" style="fill:#f8fff7;stroke:#2c8d2d;stroke-width:1.2"/>
      <use href="#server" x="19" y="13" width="36" height="32"/>
      <text x="37" y="72" style="font-family:Arial,Helvetica,sans-serif;font-size:22px;font-weight:700;fill:#050505" text-anchor="middle">W<tspan style="font-size:14px;baseline-shift:sub">1,3</tspan></text>
    </g>

    <g transform="translate(1260 492)">
      <rect width="74" height="86" rx="7" style="fill:#f8fff7;stroke:#2c8d2d;stroke-width:1.2"/>
      <use href="#server" x="19" y="13" width="36" height="32"/>
      <text x="37" y="72" style="font-family:Arial,Helvetica,sans-serif;font-size:22px;font-weight:700;fill:#050505" text-anchor="middle">W<tspan style="font-size:14px;baseline-shift:sub">2,0</tspan></text>
    </g>
    <g transform="translate(1358 492)">
      <rect width="74" height="86" rx="7" style="fill:#f8fff7;stroke:#2c8d2d;stroke-width:1.2"/>
      <use href="#server" x="19" y="13" width="36" height="32"/>
      <text x="37" y="72" style="font-family:Arial,Helvetica,sans-serif;font-size:22px;font-weight:700;fill:#050505" text-anchor="middle">W<tspan style="font-size:14px;baseline-shift:sub">2,1</tspan></text>
    </g>
    <g transform="translate(1456 492)">
      <rect width="74" height="86" rx="7" style="fill:#f8fff7;stroke:#2c8d2d;stroke-width:1.2"/>
      <use href="#server" x="19" y="13" width="36" height="32"/>
      <text x="37" y="72" style="font-family:Arial,Helvetica,sans-serif;font-size:22px;font-weight:700;fill:#050505" text-anchor="middle">W<tspan style="font-size:14px;baseline-shift:sub">2,2</tspan></text>
    </g>
    <g transform="translate(1554 492)">
      <rect width="74" height="86" rx="7" style="fill:#f8fff7;stroke:#2c8d2d;stroke-width:1.2"/>
      <use href="#server" x="19" y="13" width="36" height="32"/>
      <text x="37" y="72" style="font-family:Arial,Helvetica,sans-serif;font-size:22px;font-weight:700;fill:#050505" text-anchor="middle">W<tspan style="font-size:14px;baseline-shift:sub">2,3</tspan></text>
    </g>

    <use href="#check" x="1255" y="644" width="58" height="58"/>
    <text x="1330" y="671" style="font-family:Arial,Helvetica,sans-serif;font-size:18px;fill:#050505" font-weight="800">All workers healthy.</text>
    <text x="1330" y="700" style="font-family:Arial,Helvetica,sans-serif;font-size:18px;fill:#050505" font-weight="800">Training resumes.</text>
  </g>

  <!-- Legend -->
  <g id="legend">
    <rect x="73" y="818" width="1085" height="110" rx="8" style="fill:#ffffff;stroke:#7f8794;stroke-width:1.1"/>
    <text x="97" y="847" style="font-family:Arial,Helvetica,sans-serif;font-size:18px;fill:#050505" font-weight="700">Legend</text>
    <g transform="translate(96 864)">
      <rect width="42" height="42" rx="5" style="fill:#f8fbff;stroke:#2e73dc;stroke-width:1.2"/>
      <use href="#server" x="8" y="6" width="27" height="27"/>
    </g>
    <text x="148" y="892" style="font-family:Arial,Helvetica,sans-serif;font-size:16px;fill:#050505">Healthy</text>
    <g transform="translate(266 864)">
      <rect width="42" height="42" rx="5" style="fill:#fffafa;stroke:#e00008;stroke-width:1.3"/>
      <use href="#cross" x="8" y="8" width="26" height="26"/>
    </g>
    <text x="318" y="892" style="font-family:Arial,Helvetica,sans-serif;font-size:16px;fill:#050505">Failed</text>
    <g transform="translate(435 859)">
      <rect width="50" height="50" rx="5" style="fill:#fffafa;stroke:#e00008;stroke-width:1.3;stroke-dasharray:8 7"/>
      <use href="#server" x="12" y="11" width="27" height="27"/>
    </g>
    <text x="497" y="892" style="font-family:Arial,Helvetica,sans-serif;font-size:16px;fill:#050505">Replacement</text>
    <path d="M651 876 H692" style="fill:none;stroke:#1f65d6;stroke-width:4;marker-end:url(#arrowBlue)"/>
    <text x="707" y="874" style="font-family:Arial,Helvetica,sans-serif;font-size:16px;fill:#050505">Pull from Peers</text>
    <text x="707" y="900" style="font-family:Arial,Helvetica,sans-serif;font-size:16px;fill:#050505">(Dense/Router + Opt State)</text>
    <path d="M963 876 H1004" style="fill:none;stroke:#6a3fb5;stroke-width:3.2;marker-end:url(#arrowPurple)"/>
    <text x="1018" y="874" style="font-family:Arial,Helvetica,sans-serif;font-size:16px;fill:#050505">Restore from</text>
    <text x="1018" y="900" style="font-family:Arial,Helvetica,sans-serif;font-size:16px;fill:#050505">Checkpoint</text>
  </g>

  <!-- Example note -->
  <g id="example-note">
    <rect x="1227" y="828" width="347" height="84" rx="7" fill="#fffaf0" stroke="#eea320" stroke-width="1.2"/>
    <use href="#bulb" x="1246" y="846" width="42" height="42"/>
    <text x="1304" y="864" style="font-family:Arial,Helvetica,sans-serif;font-size:18px;fill:#050505" font-weight="700">Example: W<tspan style="font-size:14px;baseline-shift:sub">1,2</tspan> recovered</text>
    <text x="1304" y="893" style="font-family:Arial,Helvetica,sans-serif;font-size:18px;fill:#050505" font-weight="700">from W<tspan style="font-size:14px;baseline-shift:sub">0,2</tspan> and W<tspan style="font-size:14px;baseline-shift:sub">2,2</tspan>.</text>
  </g>
</svg>
